<?xml version="1.0" encoding="UTF-8" standalone="no"?>
<!-- Generator: Adobe Illustrator 16.0.4, SVG Export Plug-In . SVG Version: 6.00 Build 0)  -->

<svg
   xmlns:dc="http://purl.org/dc/elements/1.1/"
   xmlns:cc="http://creativecommons.org/ns#"
   xmlns:rdf="http://www.w3.org/1999/02/22-rdf-syntax-ns#"
   xmlns:svg="http://www.w3.org/2000/svg"
   xmlns="http://www.w3.org/2000/svg"
   xmlns:sodipodi="http://sodipodi.sourceforge.net/DTD/sodipodi-0.dtd"
   xmlns:inkscape="http://www.inkscape.org/namespaces/inkscape"
   version="1.1"
   x="0px"
   y="0px"
   width="500px"
   height="220px"
   viewBox="0 0 500 220"
   enable-background="new 0 0 500 220"
   xml:space="preserve"
   id="svg4414"
   inkscape:version="0.91 r13725"
   sodipodi:docname="logo-cmp-white.svg"><metadata
     id="metadata4486"><rdf:RDF><cc:Work
         rdf:about=""><dc:format>image/svg+xml</dc:format><dc:type
           rdf:resource="http://purl.org/dc/dcmitype/StillImage" /></cc:Work></rdf:RDF></metadata><defs
     id="defs4484" /><sodipodi:namedview
     pagecolor="#ffffff"
     bordercolor="#666666"
     borderopacity="1"
     objecttolerance="10"
     gridtolerance="10"
     guidetolerance="10"
     inkscape:pageopacity="0"
     inkscape:pageshadow="2"
     inkscape:window-width="1448"
     inkscape:window-height="769"
     id="namedview4482"
     showgrid="false"
     inkscape:zoom="1.5179375"
     inkscape:cx="229.29262"
     inkscape:cy="110"
     inkscape:window-x="65"
     inkscape:window-y="24"
     inkscape:window-maximized="0"
     inkscape:current-layer="g4424" /><g
     id="Layer_1" /><g
     id="Jane_x27_s_modifications"><g
       id="g4418"><path
         fill="#00ACD7"
         d="M50.983,94.276v-3.454h9.113V5.521h-9.94V2.069C58.576,2.347,66.86,1.518,75.003,0v52.038h0.277    c3.448-8.281,10.627-13.253,19.875-13.253c5.385,0,15.045,1.934,16.424,8.42c1.383,6.763,1.244,15.322,1.244,22.225v21.393h8.697    v3.454H89.497v-3.454h8.694V65.978c0-12.835,1.382-22.637-7.866-22.637c-5.935,0-11.319,6.763-13.389,11.871    c-1.794,4.553-1.794,10.905-1.794,17.394v18.217h8.282v3.454H50.983z"
         id="path4420" /><path
         fill="#00ACD7"
         d="M124.802,94.276v-3.454h10.077V43.064h-10.077v-3.451c8.146,0.277,16.566-0.274,24.986-0.551v51.761    h10.215v3.454H124.802z M141.229,26.71c-4.279,0-7.453-4.276-7.453-8.281c0-3.725,3.725-7.454,7.453-7.454    c4.002,0,8.143,3.313,8.143,7.454C149.373,23.124,145.921,26.71,141.229,26.71z"
         id="path4422" /></g><g
       id="g4424"><g
         id="g4426"
         style="fill:#ffffff"><path
           d="M479.317,117.195c0-3.267,2.586-5.882,5.854-5.882c3.25,0,5.853,2.615,5.853,5.882c0,3.232-2.603,5.849-5.853,5.849     C481.903,123.044,479.317,120.427,479.317,117.195z M489.633,117.195c0-2.632-1.951-4.495-4.462-4.495     c-2.558,0-4.462,1.862-4.462,4.495c0,2.598,1.904,4.462,4.462,4.462C487.682,121.657,489.633,119.792,489.633,117.195z      M487.98,120.162h-1.479l-1.36-2.568h-0.946v2.568h-1.36v-6.088h2.955c1.405,0,2.365,0.252,2.365,1.863     c0,1.125-0.575,1.582-1.653,1.657L487.98,120.162z M485.821,116.675c0.681,0,1.063-0.146,1.063-0.918     c0-0.618-0.783-0.618-1.373-0.618h-1.316v1.536H485.821z"
           id="path4428"
           style="fill:#ffffff" /></g><g
         id="g4430"
         style="fill:#ffffff"><path
           d="M75.604,204.864v-6.132h1.424c2.882,0,4.523,0.512,4.523,3.03c0,2.517-1.568,3.102-4.597,3.102H75.604z M75.604,219.203     v-8.612h1.278c0.583,0,1.167,0,1.714,0c2.445,0,4.451-0.108,6.241-1.166c2.335-1.388,3.611-3.978,3.611-7.445     c0-3.357-1.35-6.057-3.649-7.516c-2.043-1.314-4.634-1.351-7.917-1.351c-0.146,0-0.329,0-0.511,0h-7.444v26.089H75.604z"
           id="path4432"
           style="fill:#ffffff" /><path
           d="M107.057,193.114h7.188v26.089h-7.188V193.114z"
           id="path4434"
           style="fill:#ffffff" /><path
           d="M138.548,199.281h-5.801v-6.167h18.755v6.167h-5.839v19.922h-7.115V199.281z"
           id="path4436"
           style="fill:#ffffff" /><path
           d="M174.089,199.281h-5.801v-6.167h18.755v6.167h-5.839v19.922h-7.115V199.281z"
           id="path4438"
           style="fill:#ffffff" /><path
           d="M213.425,214.351c1.97,0,3.248-1.166,3.248-2.7c0-2.08-1.424-2.7-4.379-3.467c-4.708-1.241-7.007-3.138-7.007-7.225     c0-4.853,3.54-8.464,9.014-8.464c2.919,0,5.474,0.764,7.736,2.334l-2.226,5.109c-1.642-1.386-3.393-2.08-4.999-2.08     c-1.752,0-2.883,0.95-2.883,2.189c0,1.863,1.789,2.263,4.16,2.882c4.634,1.241,7.188,2.956,7.188,7.773     c0,5.438-3.868,9.193-9.998,9.193c-3.686,0-6.458-1.166-9.269-3.831l3.211-5.29C209.302,213.146,211.345,214.351,213.425,214.351     z"
           id="path4440"
           style="fill:#ffffff" /><path
           d="M249.403,213.877v-5.693h2.591c3.065,0,4.526,0.475,4.526,2.956c0,2.153-1.607,2.738-4.635,2.738H249.403z      M242.799,219.203h7.372c4.27,0,7.37-0.071,9.707-1.312c2.188-1.168,3.392-3.357,3.392-6.13c0-3.87-2.188-6.313-5.911-6.606     c3.32-0.912,4.744-2.517,4.744-5.508c0-2.592-1.277-4.562-3.687-5.621c-1.97-0.875-4.488-0.912-7.698-0.912     c-0.256,0-0.511,0-0.767,0h-7.152V219.203z M249.403,203.548v-5.253h1.533c2.883,0,4.489,0.327,4.489,2.663     c0,2.153-1.605,2.59-4.599,2.59H249.403z"
           id="path4442"
           style="fill:#ffffff" /><path
           d="M289.651,193.114v10.91c0,0.329,0,1.388,0,3.248c0,4.635,0.839,6.642,4.525,6.642c4.343,0,4.524-2.702,4.524-8.283     c0-0.512,0-1.059,0-1.607v-10.91h7.079v11.093c0,0.512,0,1.97,0,4.414c0,7.883-3.32,11.275-11.604,11.275     c-4.416,0-7.481-1.02-9.342-3.173c-2.08-2.372-2.263-5.438-2.263-9.524c0-0.948,0-1.934,0-2.992v-11.093H289.651z"
           id="path4444"
           style="fill:#ffffff" /><path
           d="M333.951,205.447v-6.861h1.422c2.956,0,4.308,0.875,4.308,3.614c0,2.299-1.424,3.248-4.416,3.248H333.951z      M327.273,219.203h6.678v-10.217l5.985,10.217h8.027l-7.116-10.508c3.795-0.804,5.839-3.394,5.839-7.444     c0-2.7-1.023-4.926-2.919-6.386c-2.227-1.714-5-1.751-8.612-1.751c-0.146,0-0.293,0-0.438,0h-7.444V219.203z"
           id="path4446"
           style="fill:#ffffff" /><path
           d="M378.797,204.133h13.976c0.037,0.546,0.037,1.058,0.037,1.57c0,9.013-5.109,14.122-13.575,14.122     c-4.16,0-7.408-1.205-10.035-3.87c-2.481-2.517-3.903-6.094-3.903-9.778c0-7.918,5.911-13.648,13.938-13.648     c5.072,0,9.049,2.045,11.749,6.022l-6.166,2.956c-1.46-2.007-3.283-2.992-5.583-2.992c-4.16,0-6.859,2.917-6.859,7.955     c0,4.999,2.663,7.991,6.859,7.991c3.687,0,6.276-2.043,6.643-4.854h-7.08V204.133z"
           id="path4448"
           style="fill:#ffffff" /><path
           d="M412.512,193.114h7.117v10.144h9.486v-10.144h7.115v26.089h-7.115v-10.617h-9.486v10.617h-7.117V193.114z"
           id="path4450"
           style="fill:#ffffff" /></g><path
         d="M16.18,76.054c0,13.115,3.04,17.53,12.149,17.53c9.938,0,16.563-6.899,19.047-16.563h3.177    C48.62,89.03,39.233,96.345,27.5,96.345c-16.84,0-28.161-13.388-27.471-29.951c0.277-6.764,4.005-16.012,9.249-20.569    c5.662-4.968,11.871-7.04,19.462-7.04c8.281,0,20.569,3.728,20.569,14.082c0,3.725-2.901,8.004-6.903,8.004    c-4.279,0-8.559-1.795-8.559-7.038c0-4.145,4.279-4.972,4.279-7.457c0-3.863-7.453-4.831-9.66-4.831    c-13.389,0-12.288,13.667-12.288,23.466V76.054z"
         id="path4452"
         style="fill:#ffffff" /><path
         d="M163.3,94.276v-3.454h10.35V5.521h-9.937V2.069c8.42,0.277,16.701-0.551,24.847-2.069v90.822h10.077v3.454H163.3z"
         id="path4454"
         style="fill:#ffffff" /><path
         d="M216.416,56.591c0-7.866,1.102-15.046,10.211-15.046c10.63,0,16.289,11.459,16.289,20.153v14.632    c0,8.281-8.143,17.252-16.563,17.252c-7.592,0-9.937-5.793-9.937-12.422V56.591z M242.916,95.381    c8.838-1.521,16.847-1.105,24.851-1.105v-3.454h-9.938V0c-8.148,1.518-16.43,2.347-24.85,2.069v3.451h9.938V50.52h-0.274    c-1.659-6.489-7.73-11.735-16.704-11.735c-14.355,0-26.361,15.46-26.361,29.126c0,7.18,2.758,16.424,8.281,21.258    c5.245,4.554,8.97,7.176,16.286,7.176c8.697,0,15.184-4.141,18.499-11.456h0.274V95.381z"
         id="path4456"
         style="fill:#ffffff" /><path
         d="M294.535,54.383c4.418-7.592,9.251-15.599,19.327-15.599c5.382,0,11.04,2.761,11.04,8.974c0,5.384-3.726,7.73-8.693,7.73    c-3.313,0-6.629-2.9-6.629-6.351c0-0.551,0.139-1.379,0.277-2.072c0.413-2.207,0.552-3.035-0.967-3.035    c-2.62,0-4.005,1.382-5.796,3.174c-5.246,5.246-8.559,12.699-8.559,30.783v12.835h12.425v3.454h-35.475v-3.454h8.14V43.064h-9.109    v-3.451c7.18,0.277,15.6-0.274,24.02-0.551V54.383z"
         id="path4458"
         style="fill:#ffffff" /><path
         d="M341.141,60.319c0-8.697-1.243-18.774,10.213-18.774c12.283,0,9.937,9.525,9.937,18.774H341.141z M373.439,63.77    c2.207,0,3.45,0.413,3.45-2.484c0-13.666-11.868-22.501-24.708-22.501c-15.046,0-27.468,13.804-27.468,28.988    c0,14.079,10.904,28.572,25.949,28.572c13.389,0,22.914-5.935,26.504-19.324h-3.451c-2.762,9.387-10.354,16.563-20.294,16.563    c-11.729,0-12.281-9.11-12.281-18.77V63.77H373.439z"
         id="path4460"
         style="fill:#ffffff" /><path
         d="M404.262,52.038h0.277c4.417-8.558,10.626-13.253,20.564-13.253c18.361,0,16.843,12.837,16.843,26.503v25.534h8.694v3.454    h-32.023v-3.454h8.697V65.978c0-12.835,1.379-22.222-7.87-22.222c-5.935,0-11.319,6.348-13.388,11.456    c-1.795,4.553-1.795,10.905-1.795,17.394v18.217h8.697v3.454h-32.713v-3.454h9.383V43.064h-9.383v-3.451    c7.037,0.277,15.457-0.274,24.016-0.551V52.038z"
         id="path4462"
         style="fill:#ffffff" /><path
         d="M462.515,22.342c0,7.358-5.046,13.666-10.93,17.554c-0.95,0.315-2.001-0.104-2.001-1.262c0-0.418,1.682-1.681,2.001-1.89    c3.784-2.524,7.882-9.146,7.882-13.454c0-0.84-0.422-4.31-1.786-4.31c-1.262,0-1.474,0.736-1.687,1.682    c-0.521,2.312-2.728,3.888-5.569,3.888c-3.571,0-5.778-3.256-5.778-6.622c0-4.307,3.467-7.041,7.672-7.041    C459.045,10.887,462.515,16.142,462.515,22.342z"
         id="path4464"
         style="fill:#ffffff" /><path
         d="M462.453,94.276h-2.207v-19.74h3.725c1.383,9.798,7.04,19.047,17.53,19.047c6.073,0,12.561-4.141,12.561-11.04    c0-6.906-6.349-7.592-13.528-8.559c-14.217-1.934-19.598-7.73-19.598-18.358c0-10.491,7.179-16.843,17.391-16.843    c4.834,0,9.66,1.521,13.527,4.417l2.208-3.589h2.345v16.289h-3.586c-0.828-7.453-6.764-14.356-14.494-14.356    c-5.384,0-11.179,3.175-11.179,9.525c0,4.141,0.689,5.659,13.112,7.73C492.82,60.871,500,63.081,500,77.298    c0,13.25-7.318,19.047-19.74,19.047c-4.554,0-10.491-2.623-13.805-5.796L462.453,94.276z"
         id="path4466"
         style="fill:#ffffff" /><g
         id="g4468"
         style="fill:#ffffff"><path
           d="M48.617,125.01h0.277c3.451-8.282,9.798-13.527,19.185-13.527c7.592,0,13.389,4.141,15.873,11.455     c4.005-6.764,9.938-11.455,17.945-11.455c18.081,0,16.563,11.182,16.563,25.399v26.646h8.835v3.454H96.513v-3.454h7.318v-36.86     c0-3.864,0.689-10.215-5.797-10.215c-10.354,0-14.494,12.01-14.494,20.43v26.646h7.593v3.454H61.731v-3.454h7.176v-32.995     c0-6.35,1.656-14.081-6.626-14.081c-6.763,0-13.665,10.492-13.665,20.708v26.368h7.592v3.454H25.013v-3.454h8.974v-47.765h-9.525     v-3.451c7.041,0.277,15.461-0.277,24.155-0.551V125.01z"
           id="path4470"
           style="fill:#ffffff" /><path
           d="M173.71,155.928h-0.416c-3.864,7.737-11.317,13.121-20.288,13.121c-13.253,0-16.701-6.908-16.701-13.396v-39.891h-8.974     v-3.451c6.902,0.277,15.322-0.277,23.603-0.551v42.927c0,5.661-0.416,9.944,6.626,9.944c5.106,0,16.15-5.665,16.15-22.227     v-26.642h-10.492v-3.451c8.423,0.277,16.843-0.277,25.124-0.551v51.767h9.661v3.454c-8.143,0-16.286-0.416-24.293,1.103V155.928z     "
           id="path4472"
           style="fill:#ffffff" /><path
           d="M205.552,166.98h-2.21v-19.747h3.728c1.38,9.799,7.038,19.054,17.53,19.054c6.074,0,12.561-4.146,12.561-11.046     c0-6.905-6.349-7.592-13.527-8.558c-14.217-1.934-19.601-7.731-19.601-18.36c0-10.492,7.179-16.84,17.394-16.84     c4.83,0,9.66,1.517,13.524,4.415l2.21-3.586h2.346V128.6h-3.586c-0.832-7.458-6.764-14.356-14.494-14.356     c-5.385,0-11.182,3.173-11.182,9.523c0,4.143,0.69,5.661,13.112,7.733c12.563,2.068,19.743,4.275,19.743,18.497     c0,13.253-7.318,19.053-19.743,19.053c-4.554,0-10.489-2.623-13.802-5.799L205.552,166.98z"
           id="path4474"
           style="fill:#ffffff" /><path
           d="M266.158,133.018c0-8.697-1.241-18.774,10.214-18.774c12.284,0,9.941,9.523,9.941,18.774H266.158z M298.455,136.468     c2.21,0,3.454,0.414,3.454-2.484c0-13.669-11.871-22.501-24.706-22.501c-15.047,0-27.47,13.804-27.47,28.987     c0,14.079,10.901,28.579,25.949,28.579c13.389,0,22.912-5.938,26.504-19.33h-3.454c-2.758,9.386-10.354,16.568-20.291,16.568     c-11.733,0-12.284-9.116-12.284-18.777v-11.042H298.455z"
           id="path4476"
           style="fill:#ffffff" /><path
           d="M350.258,155.928h-0.412c-3.864,7.737-11.317,13.121-20.294,13.121c-13.25,0-16.701-6.908-16.701-13.396v-39.891h-8.971     v-3.451c6.903,0.277,15.323-0.277,23.604-0.551v42.927c0,5.661-0.413,9.944,6.625,9.944c5.107,0,16.149-5.665,16.149-22.227     v-26.642H339.77v-3.451c8.42,0.277,16.84-0.277,25.121-0.551v51.767h9.66v3.454c-8.143,0-16.285-0.416-24.293,1.103V155.928z"
           id="path4478"
           style="fill:#ffffff" /><path
           d="M401.342,125.01h0.277c3.447-8.282,9.798-13.527,19.182-13.527c7.592,0,13.393,4.141,15.876,11.455     c4.007-6.764,9.938-11.455,17.945-11.455c18.081,0,16.561,11.182,16.561,25.399v26.646h8.838v3.454h-30.782v-3.454h7.315v-36.86     c0-3.864,0.692-10.215-5.798-10.215c-10.35,0-14.494,12.01-14.494,20.43v26.646h7.593v3.454h-29.398v-3.454h7.174v-32.995     c0-6.35,1.659-14.081-6.622-14.081c-6.765,0-13.666,10.492-13.666,20.708v26.368h7.592v3.454h-31.196v-3.454h8.972v-47.765     h-9.521v-3.451c7.037,0.277,15.46-0.277,24.154-0.551V125.01z"
           id="path4480"
           style="fill:#ffffff" /></g></g></g></svg>